<svg width="47" height="47" viewBox="0 0 47 47" fill="none" xmlns="http://www.w3.org/2000/svg">
<path d="M41.125 15.1772H5.875C5.07208 15.1772 4.40625 14.5114 4.40625 13.7085C4.40625 12.9056 5.07208 12.2397 5.875 12.2397H41.125C41.9279 12.2397 42.5938 12.9056 42.5938 13.7085C42.5938 14.5114 41.9279 15.1772 41.125 15.1772Z" fill="#292D32"/>
<path d="M41.125 24.9688H5.875C5.07208 24.9688 4.40625 24.3029 4.40625 23.5C4.40625 22.6971 5.07208 22.0312 5.875 22.0312H41.125C41.9279 22.0312 42.5938 22.6971 42.5938 23.5C42.5938 24.3029 41.9279 24.9688 41.125 24.9688Z" fill="#292D32"/>
<path d="M41.125 34.7603H5.875C5.07208 34.7603 4.40625 34.0944 4.40625 33.2915C4.40625 32.4886 5.07208 31.8228 5.875 31.8228H41.125C41.9279 31.8228 42.5938 32.4886 42.5938 33.2915C42.5938 34.0944 41.9279 34.7603 41.125 34.7603Z" fill="#292D32"/>
</svg>
